<mxfile host="app.diagrams.net" modified="2021-05-18T14:17:00.043Z" agent="5.0 (Windows NT 10.0; Win64; x64) AppleWebKit/537.36 (KHTML, like Gecko) Chrome/90.0.4430.212 Safari/537.36" etag="pe6niT9PijDPhowzj2NL" version="14.6.13" type="github">
  <diagram id="FSVHth2wTJ1xh1kwXthl" name="VPC">
    <mxGraphModel dx="1038" dy="580" grid="1" gridSize="10" guides="1" tooltips="1" connect="1" arrows="0" fold="1" page="1" pageScale="1" pageWidth="850" pageHeight="1100" math="0" shadow="0">
      <root>
        <mxCell id="0" />
        <mxCell id="1" parent="0" />
        <mxCell id="LFnEBbYY4jbzGqoRSsYI-5" value="" style="swimlane;startSize=0;shadow=0;rounded=0;glass=0;" vertex="1" parent="1">
          <mxGeometry x="30" y="61" width="800" height="539" as="geometry">
            <mxRectangle x="270" y="170" width="50" height="40" as="alternateBounds" />
          </mxGeometry>
        </mxCell>
        <mxCell id="LFnEBbYY4jbzGqoRSsYI-6" value="" style="rounded=0;whiteSpace=wrap;html=1;" vertex="1" parent="LFnEBbYY4jbzGqoRSsYI-5">
          <mxGeometry x="50" y="300" width="340" height="200" as="geometry" />
        </mxCell>
        <mxCell id="LFnEBbYY4jbzGqoRSsYI-21" style="edgeStyle=orthogonalEdgeStyle;rounded=0;orthogonalLoop=1;jettySize=auto;html=1;exitX=0.5;exitY=1;exitDx=0;exitDy=0;" edge="1" parent="LFnEBbYY4jbzGqoRSsYI-5" source="LFnEBbYY4jbzGqoRSsYI-14">
          <mxGeometry relative="1" as="geometry">
            <mxPoint x="170" y="300" as="targetPoint" />
            <Array as="points">
              <mxPoint x="170" y="300" />
            </Array>
          </mxGeometry>
        </mxCell>
        <mxCell id="LFnEBbYY4jbzGqoRSsYI-14" value="" style="ellipse;whiteSpace=wrap;html=1;aspect=fixed;" vertex="1" parent="LFnEBbYY4jbzGqoRSsYI-5">
          <mxGeometry x="140" y="170" width="60" height="60" as="geometry" />
        </mxCell>
        <mxCell id="LFnEBbYY4jbzGqoRSsYI-15" value="" style="ellipse;whiteSpace=wrap;html=1;aspect=fixed;" vertex="1" parent="LFnEBbYY4jbzGqoRSsYI-5">
          <mxGeometry x="580" y="170" width="60" height="60" as="geometry" />
        </mxCell>
        <mxCell id="LFnEBbYY4jbzGqoRSsYI-18" value="Text" style="text;html=1;strokeColor=none;fillColor=none;align=center;verticalAlign=middle;whiteSpace=wrap;rounded=0;" vertex="1" parent="LFnEBbYY4jbzGqoRSsYI-5">
          <mxGeometry x="170" y="410" width="40" height="20" as="geometry" />
        </mxCell>
        <mxCell id="LFnEBbYY4jbzGqoRSsYI-19" value="Text" style="text;html=1;strokeColor=none;fillColor=none;align=center;verticalAlign=middle;whiteSpace=wrap;rounded=0;" vertex="1" parent="LFnEBbYY4jbzGqoRSsYI-5">
          <mxGeometry x="600" y="420" width="40" height="20" as="geometry" />
        </mxCell>
        <mxCell id="LFnEBbYY4jbzGqoRSsYI-26" style="edgeStyle=orthogonalEdgeStyle;rounded=0;orthogonalLoop=1;jettySize=auto;html=1;" edge="1" parent="LFnEBbYY4jbzGqoRSsYI-5" source="LFnEBbYY4jbzGqoRSsYI-25" target="LFnEBbYY4jbzGqoRSsYI-14">
          <mxGeometry relative="1" as="geometry" />
        </mxCell>
        <mxCell id="LFnEBbYY4jbzGqoRSsYI-25" value="" style="verticalLabelPosition=bottom;verticalAlign=top;html=1;shape=mxgraph.basic.6_point_star;rounded=0;shadow=0;glass=0;" vertex="1" parent="LFnEBbYY4jbzGqoRSsYI-5">
          <mxGeometry x="310" y="19" width="100" height="90" as="geometry" />
        </mxCell>
        <mxCell id="LFnEBbYY4jbzGqoRSsYI-34" style="edgeStyle=orthogonalEdgeStyle;rounded=0;orthogonalLoop=1;jettySize=auto;html=1;exitX=0.5;exitY=0.75;exitDx=0;exitDy=0;exitPerimeter=0;" edge="1" parent="LFnEBbYY4jbzGqoRSsYI-5" source="LFnEBbYY4jbzGqoRSsYI-28" target="LFnEBbYY4jbzGqoRSsYI-15">
          <mxGeometry relative="1" as="geometry" />
        </mxCell>
        <mxCell id="LFnEBbYY4jbzGqoRSsYI-36" style="rounded=0;orthogonalLoop=1;jettySize=auto;html=1;entryX=1;entryY=0;entryDx=0;entryDy=0;" edge="1" parent="LFnEBbYY4jbzGqoRSsYI-5" target="LFnEBbYY4jbzGqoRSsYI-6">
          <mxGeometry relative="1" as="geometry">
            <mxPoint x="570" y="89" as="sourcePoint" />
          </mxGeometry>
        </mxCell>
        <mxCell id="LFnEBbYY4jbzGqoRSsYI-28" value="" style="shape=switch;whiteSpace=wrap;html=1;rounded=0;shadow=0;glass=0;" vertex="1" parent="LFnEBbYY4jbzGqoRSsYI-5">
          <mxGeometry x="580" y="19" width="60" height="60" as="geometry" />
        </mxCell>
        <mxCell id="LFnEBbYY4jbzGqoRSsYI-39" value="&lt;font style=&quot;font-size: 18px&quot;&gt;IGW&lt;/font&gt;" style="text;html=1;align=center;verticalAlign=middle;resizable=0;points=[];autosize=1;strokeColor=none;" vertex="1" parent="LFnEBbYY4jbzGqoRSsYI-5">
          <mxGeometry x="255" y="29" width="50" height="20" as="geometry" />
        </mxCell>
        <mxCell id="LFnEBbYY4jbzGqoRSsYI-40" value="&lt;font style=&quot;font-size: 19px&quot;&gt;NAT&lt;/font&gt;" style="text;html=1;align=center;verticalAlign=middle;resizable=0;points=[];autosize=1;strokeColor=none;" vertex="1" parent="LFnEBbYY4jbzGqoRSsYI-5">
          <mxGeometry x="640" y="29" width="50" height="20" as="geometry" />
        </mxCell>
        <mxCell id="LFnEBbYY4jbzGqoRSsYI-43" value="&lt;font style=&quot;font-size: 18px&quot;&gt;Public Subnet&lt;/font&gt;" style="text;html=1;align=center;verticalAlign=middle;resizable=0;points=[];autosize=1;strokeColor=none;" vertex="1" parent="LFnEBbYY4jbzGqoRSsYI-5">
          <mxGeometry x="215" y="269" width="130" height="20" as="geometry" />
        </mxCell>
        <mxCell id="LFnEBbYY4jbzGqoRSsYI-46" value="&lt;span style=&quot;font-size: 17px&quot;&gt;10.0.2.0/24 - 256&lt;/span&gt;" style="text;html=1;align=center;verticalAlign=middle;resizable=0;points=[];autosize=1;strokeColor=none;" vertex="1" parent="LFnEBbYY4jbzGqoRSsYI-5">
          <mxGeometry x="550" y="509" width="140" height="20" as="geometry" />
        </mxCell>
        <mxCell id="LFnEBbYY4jbzGqoRSsYI-45" value="&lt;font style=&quot;font-size: 17px&quot;&gt;10.0.1.0/24 - 256&lt;/font&gt;" style="text;html=1;align=center;verticalAlign=middle;resizable=0;points=[];autosize=1;strokeColor=none;" vertex="1" parent="LFnEBbYY4jbzGqoRSsYI-5">
          <mxGeometry x="115" y="509" width="140" height="20" as="geometry" />
        </mxCell>
        <mxCell id="LFnEBbYY4jbzGqoRSsYI-7" value="" style="rounded=0;whiteSpace=wrap;html=1;" vertex="1" parent="1">
          <mxGeometry x="480" y="360" width="330" height="200" as="geometry" />
        </mxCell>
        <mxCell id="LFnEBbYY4jbzGqoRSsYI-20" style="edgeStyle=orthogonalEdgeStyle;rounded=0;orthogonalLoop=1;jettySize=auto;html=1;exitX=1;exitY=0.5;exitDx=0;exitDy=0;entryX=0;entryY=0.5;entryDx=0;entryDy=0;" edge="1" parent="1" source="LFnEBbYY4jbzGqoRSsYI-8" target="LFnEBbYY4jbzGqoRSsYI-9">
          <mxGeometry relative="1" as="geometry" />
        </mxCell>
        <mxCell id="LFnEBbYY4jbzGqoRSsYI-8" value="" style="rounded=1;whiteSpace=wrap;html=1;fillColor=#d5e8d4;strokeColor=#82b366;" vertex="1" parent="1">
          <mxGeometry x="110" y="400" width="220" height="150" as="geometry" />
        </mxCell>
        <mxCell id="LFnEBbYY4jbzGqoRSsYI-9" value="" style="rounded=1;whiteSpace=wrap;html=1;fillColor=#f8cecc;strokeColor=#b85450;" vertex="1" parent="1">
          <mxGeometry x="550" y="400" width="230" height="150" as="geometry" />
        </mxCell>
        <mxCell id="LFnEBbYY4jbzGqoRSsYI-10" value="&lt;font style=&quot;font-size: 20px&quot;&gt;EC2&lt;/font&gt;" style="shape=cube;whiteSpace=wrap;html=1;boundedLbl=1;backgroundOutline=1;darkOpacity=0.05;darkOpacity2=0.1;" vertex="1" parent="1">
          <mxGeometry x="150" y="440" width="120" height="80" as="geometry" />
        </mxCell>
        <mxCell id="LFnEBbYY4jbzGqoRSsYI-13" value="&lt;font style=&quot;font-size: 20px&quot;&gt;EC2&lt;/font&gt;" style="shape=cube;whiteSpace=wrap;html=1;boundedLbl=1;backgroundOutline=1;darkOpacity=0.05;darkOpacity2=0.1;" vertex="1" parent="1">
          <mxGeometry x="585" y="440" width="120" height="80" as="geometry" />
        </mxCell>
        <mxCell id="LFnEBbYY4jbzGqoRSsYI-23" value="" style="edgeStyle=orthogonalEdgeStyle;rounded=0;orthogonalLoop=1;jettySize=auto;html=1;" edge="1" parent="1" source="LFnEBbYY4jbzGqoRSsYI-15">
          <mxGeometry relative="1" as="geometry">
            <mxPoint x="640" y="360" as="targetPoint" />
            <Array as="points">
              <mxPoint x="640" y="350" />
              <mxPoint x="640" y="350" />
            </Array>
          </mxGeometry>
        </mxCell>
        <mxCell id="LFnEBbYY4jbzGqoRSsYI-37" value="&lt;font style=&quot;font-size: 21px&quot;&gt;VPC&lt;/font&gt;" style="text;html=1;align=center;verticalAlign=middle;resizable=0;points=[];autosize=1;strokeColor=none;" vertex="1" parent="1">
          <mxGeometry x="750" y="40" width="60" height="20" as="geometry" />
        </mxCell>
        <mxCell id="LFnEBbYY4jbzGqoRSsYI-38" value="&lt;font style=&quot;font-size: 18px&quot;&gt;10.0.0.0/16-65536&lt;/font&gt;" style="text;html=1;align=center;verticalAlign=middle;resizable=0;points=[];autosize=1;strokeColor=none;" vertex="1" parent="1">
          <mxGeometry x="30" y="40" width="160" height="20" as="geometry" />
        </mxCell>
        <mxCell id="LFnEBbYY4jbzGqoRSsYI-41" value="&lt;font style=&quot;font-size: 18px&quot;&gt;RT&lt;/font&gt;" style="text;html=1;align=center;verticalAlign=middle;resizable=0;points=[];autosize=1;strokeColor=none;" vertex="1" parent="1">
          <mxGeometry x="120" y="250" width="40" height="20" as="geometry" />
        </mxCell>
        <mxCell id="LFnEBbYY4jbzGqoRSsYI-42" value="&lt;span style=&quot;font-size: 18px&quot;&gt;RT&lt;/span&gt;" style="text;html=1;align=center;verticalAlign=middle;resizable=0;points=[];autosize=1;strokeColor=none;" vertex="1" parent="1">
          <mxGeometry x="680" y="250" width="40" height="20" as="geometry" />
        </mxCell>
        <mxCell id="LFnEBbYY4jbzGqoRSsYI-44" value="&lt;span style=&quot;font-size: 18px&quot;&gt;Private Subnet&lt;/span&gt;" style="text;html=1;align=center;verticalAlign=middle;resizable=0;points=[];autosize=1;strokeColor=none;" vertex="1" parent="1">
          <mxGeometry x="655" y="330" width="130" height="20" as="geometry" />
        </mxCell>
      </root>
    </mxGraphModel>
  </diagram>
</mxfile>
